<svg version="1.1" id="Layer_1" xmlns="http://www.w3.org/2000/svg" xmlns:xlink="http://www.w3.org/1999/xlink" x="0px" y="0px"
	 width="100%" viewBox="0 0 250 250" enable-background="new 0 0 250 250" xml:space="preserve">
<path fill="#000000" opacity="1.000000" stroke="none" 
	d="
M149.000000,251.000000 
	C99.333336,251.000000 50.166672,251.000000 1.000007,251.000000 
	C1.000004,167.666672 1.000004,84.333351 1.000002,1.000018 
	C84.333321,1.000012 167.666641,1.000012 250.999969,1.000006 
	C250.999969,84.333313 250.999969,167.666626 250.999985,250.999969 
	C217.166672,251.000000 183.333328,251.000000 149.000000,251.000000 
M200.441406,50.086994 
	C200.273270,50.370075 200.105118,50.653160 199.231369,51.021271 
	C196.441132,53.662289 193.650909,56.303307 190.326859,59.185101 
	C190.537308,60.078796 190.747757,60.972492 190.262756,61.968418 
	C188.786957,60.971504 187.311157,59.974590 185.892395,58.451080 
	C185.606903,58.258938 185.321426,58.066795 185.037201,57.947552 
	C185.037201,57.947552 185.109711,57.939804 184.811111,57.299343 
	C181.899734,54.833794 178.988358,52.368240 176.306656,49.253178 
	C177.531937,47.537800 178.757233,45.822418 180.649078,43.681385 
	C181.820786,38.703773 182.992508,33.726162 184.164215,28.748552 
	C181.717255,28.804884 180.330688,29.031221 179.801453,29.827419 
	C176.834671,34.290665 173.954239,38.825150 171.374527,43.516865 
	C170.989395,44.217300 172.348358,45.876728 172.923523,47.016563 
	C172.923523,47.016563 172.846664,46.996788 172.784241,47.636551 
	C172.177124,47.811764 171.569992,47.986980 170.314407,47.828140 
	C167.820419,46.618496 165.326447,45.408852 162.802185,43.408539 
	C158.874390,42.246593 154.946579,41.084648 151.009338,39.987209 
	C151.009338,39.987209 151.069885,39.963032 150.667526,39.287209 
	C147.822113,38.842133 144.976700,38.397053 141.664169,37.201244 
	C129.731689,37.006001 117.758301,36.061115 105.473595,39.067726 
	C105.282074,39.355244 105.090553,39.642765 104.971603,39.929489 
	C104.971603,39.929489 104.945862,39.861629 104.137825,39.959698 
	C93.843742,42.191223 84.425629,46.094986 75.410324,54.308777 
	C78.657448,55.051682 80.310135,55.774567 81.951279,55.749275 
	C92.538963,55.586090 103.123245,55.205662 113.710869,55.032394 
	C115.796547,54.998268 117.891914,55.556179 120.660408,56.201473 
	C120.932564,60.909397 123.536301,63.640232 128.502335,65.026299 
	C128.954300,65.350929 129.406281,65.675560 130.084030,66.587456 
	C131.021042,67.392921 131.958038,68.198395 133.143478,69.633331 
	C133.818909,70.747429 134.494339,71.861526 135.030777,73.690804 
	C135.411163,74.791595 135.791565,75.892395 136.113602,77.589973 
	C136.465256,78.062500 136.816910,78.535034 137.015762,79.650581 
	C137.328659,80.147430 137.641541,80.644272 137.997772,81.578697 
	C137.997772,81.578697 138.155869,81.989006 138.012131,82.660423 
	C138.396362,83.443977 138.780609,84.227531 139.067047,85.544975 
	C139.360870,85.738197 139.654709,85.931419 139.962769,86.046547 
	C139.962769,86.046547 139.885208,86.063400 139.987732,86.763908 
	C144.979782,91.547646 149.971832,96.331390 155.183624,101.713341 
	C156.119476,102.089470 157.055328,102.465599 158.658051,102.981979 
	C159.106720,102.928421 159.555374,102.874870 160.735413,102.974274 
	C161.478577,103.021835 162.221756,103.069397 162.814331,103.660652 
	C162.844269,104.427765 162.874207,105.194885 162.278671,106.213181 
	C160.900101,108.467026 159.521530,110.720871 157.883713,113.512482 
	C156.882050,114.005005 155.880402,114.497536 154.761368,114.297668 
	C152.528442,111.157196 150.295502,108.016724 147.767059,104.262939 
	C141.122879,97.908562 133.194260,95.202126 124.069878,96.012192 
	C121.201340,96.266861 121.038734,96.676025 122.691803,100.267197 
	C124.117355,103.543015 125.542900,106.818832 127.008400,110.746689 
	C127.962708,111.856041 128.917007,112.965401 129.993439,114.560745 
	C130.045990,114.719292 130.098557,114.877831 130.061829,115.734612 
	C133.261719,121.453873 138.588791,123.948288 144.682816,123.815636 
	C149.583908,123.708961 152.516998,124.869186 153.010880,130.861435 
	C152.984894,133.899338 152.958908,136.937225 152.366806,140.427704 
	C151.928818,142.008987 151.490829,143.590271 150.379868,145.297012 
	C146.528473,147.938812 142.677078,150.580612 137.789749,153.932999 
	C140.604187,155.727219 142.299225,156.807816 144.683105,158.220978 
	C155.206833,160.417862 163.724274,165.827103 168.955475,174.038803 
	C173.323547,171.660156 176.681747,169.831421 180.145554,168.710220 
	C177.148102,171.814529 174.150665,174.918823 170.740601,178.563858 
	C168.211716,181.077148 165.682816,183.590439 162.603394,186.745468 
	C149.819473,186.025070 136.765457,186.272842 126.318123,176.445236 
	C128.416092,175.440353 130.582703,174.764847 132.442886,175.254150 
	C139.729797,177.170898 146.906540,179.502014 154.150635,181.587402 
	C159.323883,183.076645 163.532990,179.687195 163.970139,174.424637 
	C164.417801,169.035233 160.751953,167.748810 156.210892,166.142166 
	C146.489853,161.740967 136.768829,157.339752 126.599602,152.309845 
	C116.499092,149.268845 106.520599,148.465729 96.961670,153.937775 
	C96.961670,153.937775 96.963974,153.859573 96.189400,153.958130 
	C92.438324,155.600830 88.687241,157.243515 84.191086,158.950165 
	C82.769005,159.512787 81.346924,160.075409 78.961411,161.019180 
	C82.055397,164.508743 84.521103,167.289703 87.279518,170.673035 
	C97.375366,183.129837 107.400688,195.701263 120.242912,205.502243 
	C129.324463,212.433136 138.813507,218.370804 151.134796,212.917694 
	C157.597061,210.057632 164.566803,208.314880 170.939728,205.292404 
	C175.288849,203.229752 179.002182,199.826523 183.556213,196.653198 
	C189.377762,190.801910 195.199326,184.950638 201.061310,179.045273 
	C201.061310,179.045273 200.997421,179.028046 201.497879,178.867172 
	C201.680038,178.578217 201.862183,178.289246 201.991531,177.991043 
	C201.991531,177.991043 202.000793,178.043823 202.498840,177.870804 
	C202.683304,177.581543 202.867783,177.292282 202.997437,176.995071 
	C202.997437,176.995071 203.014160,177.047867 203.560577,176.820282 
	C204.049896,176.214752 204.539200,175.609222 204.997543,174.993378 
	C204.997543,174.993378 205.006424,175.024734 205.673935,174.721725 
	C207.607330,172.258102 208.041245,169.928574 205.029419,167.984573 
	C205.029419,167.984573 205.100677,167.933411 204.778519,167.290222 
	C202.854385,166.569214 200.930237,165.848190 198.310074,165.250305 
	C196.563019,165.808472 194.815979,166.366623 192.659576,166.304932 
	C187.874817,162.739380 184.222046,167.445679 180.085297,167.333267 
	C179.720230,165.571579 179.355164,163.809875 178.678055,161.454987 
	C172.834274,156.276978 166.990479,151.098953 160.650116,145.363281 
	C156.388748,143.673645 158.665894,139.801804 157.944305,136.110199 
	C157.913040,134.394730 157.881760,132.679245 157.950195,130.176651 
	C158.348038,128.142731 158.745880,126.108810 160.031891,124.038780 
	C167.677628,124.378990 174.735764,123.023666 180.770081,116.761513 
	C182.125641,115.170593 183.481201,113.579674 185.015823,112.783836 
	C184.293777,116.149704 185.965958,118.021271 188.990326,119.005196 
	C188.990326,119.005196 188.921890,119.057480 189.169876,119.681244 
	C190.762375,120.826874 192.354858,121.972511 193.956314,123.046509 
	C193.956314,123.046509 193.884293,123.051605 193.959747,123.750267 
	C195.958679,125.862556 197.957626,127.974846 199.972260,130.020004 
	C199.972260,130.020004 199.904037,130.029999 199.997192,130.718002 
	C200.653458,131.836655 201.309723,132.955307 201.988724,134.012253 
	C201.988724,134.012253 201.922958,134.011169 202.080154,134.535370 
	C202.383011,134.719818 202.685852,134.904251 202.984055,135.019852 
	C202.984055,135.019852 202.916962,135.035950 203.019913,135.804916 
	C204.918427,142.479965 206.816925,149.155029 209.114822,157.234283 
	C210.389755,155.279419 211.512070,154.144455 211.938812,152.790298 
	C213.052750,149.255569 213.862183,145.624878 214.903381,141.532578 
	C214.638596,141.340118 214.373795,141.147644 214.196686,140.322540 
	C214.410446,139.559464 214.624207,138.796371 214.977600,137.206955 
	C215.008911,136.383484 214.818436,135.471985 215.105026,134.749817 
	C218.982986,124.977669 216.163132,115.473129 214.011993,105.999710 
	C214.011993,105.999710 214.070740,105.959961 213.991058,105.213417 
	C213.657715,104.114586 213.324356,103.015762 212.962631,101.154442 
	C210.673309,95.785583 208.383987,90.416725 206.836426,85.016342 
	C211.624649,88.092102 214.901764,85.368423 218.659988,82.001266 
	C219.130035,81.674934 219.600067,81.348602 220.003922,81.010811 
	C220.003922,81.010811 220.003830,81.077965 220.737457,80.999268 
	C223.116974,79.675156 225.607162,78.509003 227.825546,76.954880 
	C228.814514,76.262039 229.256500,74.788460 229.946732,73.669220 
	C228.559464,73.323151 227.084625,72.487221 225.800262,72.716820 
	C220.580917,73.649887 215.318039,74.594444 210.292267,76.218719 
	C208.509628,76.794853 207.356552,79.318962 205.512543,80.972603 
	C205.512543,80.972603 205.109131,80.951248 204.920898,80.457397 
	C204.628342,80.278419 204.335800,80.099442 204.026932,79.992813 
	C204.026932,79.992813 204.099686,80.007164 203.945190,79.506912 
	C203.660812,79.330513 203.376450,79.154106 202.814575,78.341591 
	C200.821152,75.543228 198.827728,72.744865 196.730835,69.264511 
	C196.114182,68.393776 195.497543,67.523033 195.566299,67.620117 
	C198.019852,65.131088 200.031967,63.089863 202.679169,60.772827 
	C206.271378,54.567585 212.970612,50.157307 214.019073,42.482517 
	C213.643616,42.109894 213.268158,41.737267 212.892715,41.364643 
	C209.260544,43.963562 205.628372,46.562481 201.478333,49.081867 
	C201.293076,49.363342 201.107819,49.644814 200.441406,50.086994 
M68.997299,154.002045 
	C68.997299,154.002045 69.024681,153.991318 68.787674,153.553421 
	C68.583046,153.282166 68.326271,153.075806 67.700157,152.348724 
	C62.758076,146.314606 57.815994,140.280502 52.477333,133.762177 
	C56.384857,133.079712 59.211830,132.585953 62.872925,132.033371 
	C68.915588,129.688339 74.958244,127.343300 81.621559,124.730072 
	C89.948586,119.422813 94.681084,111.811012 97.017517,102.028114 
	C100.009903,101.957840 103.002296,101.887566 106.819473,101.913620 
	C108.780113,101.171761 111.398865,100.973862 112.558960,99.570312 
	C114.711250,96.966339 116.095505,93.700592 117.645042,90.632378 
	C119.476219,87.006477 118.307106,85.072739 114.268425,85.025734 
	C108.335075,84.956680 102.400337,85.007942 96.547188,85.007942 
	C95.263840,81.742020 94.132774,78.863625 93.936760,75.960541 
	C98.409744,75.968193 102.892357,76.145752 107.350571,75.892967 
	C108.949036,75.802330 110.488625,74.673332 112.639297,73.652878 
	C113.510567,71.874260 114.458557,70.128387 115.235123,68.309341 
	C116.400543,65.579391 117.445763,62.798134 118.542099,60.038696 
	C115.759720,59.703842 112.977631,59.082386 110.194916,59.079605 
	C88.479919,59.057899 66.764801,59.155121 44.140583,59.068172 
	C42.352985,59.049812 40.542419,59.207260 38.782455,58.977360 
	C34.830811,58.461166 32.637341,60.152679 31.393862,64.387596 
	C30.262344,66.586746 29.130827,68.785904 27.456886,71.530624 
	C26.101467,75.412277 28.214191,75.799446 31.421389,76.006355 
	C42.953938,76.750389 54.841415,73.660141 65.989182,79.028259 
	C65.989182,79.028259 65.944328,79.019440 66.163818,79.421562 
	C66.361771,79.693344 66.628288,79.815567 67.528694,80.104652 
	C68.663841,81.081787 69.798981,82.058922 71.104507,83.528290 
	C70.725769,84.082184 70.347031,84.636078 69.041862,85.082474 
	C58.064304,85.116524 47.086750,85.150581 35.394993,85.177887 
	C32.901165,89.426620 30.407339,93.675346 27.392969,98.483208 
	C26.337624,101.856392 28.497803,101.990852 30.874489,101.980576 
	C44.579319,101.921318 58.284222,101.878807 72.494179,102.337418 
	C71.989395,104.537209 71.484604,106.737000 70.386574,109.254684 
	C66.435051,114.030151 61.353920,116.984459 55.274128,117.852356 
	C50.233776,118.571861 45.116249,118.750710 39.117580,119.071907 
	C36.789337,119.057564 34.318558,118.558922 32.179798,119.188393 
	C30.586344,119.657364 28.339127,121.509972 28.243319,122.876762 
	C27.627598,131.660583 26.821495,140.685242 35.301395,147.633667 
	C44.860596,158.771225 54.419796,169.908783 64.007393,181.003326 
	C64.007393,181.003326 63.955864,181.002365 64.199287,181.452759 
	C64.476189,181.645889 64.753090,181.839005 65.331421,182.343384 
	C65.331421,182.343384 65.703262,182.565826 65.882912,183.178101 
	C71.576965,189.802719 77.271019,196.427338 83.381218,203.550964 
	C84.567436,204.056808 85.753654,204.562653 87.000153,205.002167 
	C87.000153,205.002167 86.932549,205.060455 86.990562,205.755219 
	C87.490227,206.397659 87.875076,207.196854 88.506554,207.659348 
	C100.565948,216.492126 114.007301,220.768082 129.726059,219.902344 
	C130.713135,219.680557 131.700226,219.458771 132.890488,219.191330 
	C132.368484,218.283279 132.226944,217.713959 131.863983,217.455002 
	C127.608185,214.418762 123.059921,211.733475 119.097443,208.358429 
	C112.570732,202.799225 106.417351,196.801712 99.836235,190.546448 
	C99.560165,190.344284 99.284096,190.142120 99.019966,189.999649 
	C99.019966,189.999649 99.062416,189.956009 98.719879,189.379059 
	C96.110550,186.178070 93.579620,182.909164 90.876556,179.789398 
	C83.963646,171.810760 76.974083,163.898529 69.929688,155.451859 
	C69.895630,155.283600 69.861565,155.115326 69.718056,154.510727 
	C69.545464,154.248154 69.309280,154.069672 68.997299,154.002045 
z"/>
<path fill="#1A4D2D" opacity="1.000000" stroke="none" 
	d="
M96.132927,102.095894 
	C94.681084,111.811012 89.948586,119.422813 80.990128,124.722046 
	C74.236221,126.817017 68.113754,128.919998 61.636787,130.858521 
	C56.967392,130.694046 52.652500,130.694046 48.337608,130.694046 
	C48.052406,131.435669 47.767208,132.177292 47.482010,132.918930 
	C54.985737,141.623047 62.489468,150.327179 70.161896,159.316559 
	C78.900162,170.065063 87.469727,180.528351 96.035629,191.246521 
	C96.029594,191.671341 96.027214,191.841263 95.617279,191.990082 
	C85.978554,190.584229 77.246216,187.918655 69.490952,182.458664 
	C68.663620,181.876190 66.986282,182.501053 65.703262,182.565826 
	C65.703262,182.565826 65.331421,182.343384 65.032379,181.985168 
	C64.474190,181.418747 64.215027,181.210556 63.955864,181.002365 
	C63.955864,181.002365 64.007393,181.003326 63.982605,180.644592 
	C62.326736,172.390137 55.612720,168.055557 51.154163,162.155075 
	C48.106205,158.121368 44.239517,154.676529 41.431160,150.502625 
	C39.711105,147.946213 38.090813,146.598602 35.097080,147.004318 
	C26.821495,140.685242 27.627598,131.660583 28.243319,122.876762 
	C28.339127,121.509972 30.586344,119.657364 32.179798,119.188393 
	C34.318558,118.558922 36.789337,119.057564 39.730034,119.466385 
	C41.878998,120.239815 43.405262,120.893044 44.953777,120.950943 
	C52.233467,121.223137 59.260185,120.877754 66.058914,117.213654 
	C69.891769,115.147980 71.940453,113.269722 70.979813,108.936790 
	C71.484604,106.737000 71.989395,104.537209 72.285751,101.766090 
	C70.823395,100.465057 69.578537,99.120476 68.314148,99.101860 
	C57.098251,98.936646 45.878334,99.064575 34.661022,98.957558 
	C32.408772,98.936081 30.162525,98.284912 27.913511,97.924080 
	C30.407339,93.675346 32.901165,89.426620 36.022129,85.389694 
	C38.768551,86.401253 40.864761,87.809174 43.011307,87.890633 
	C50.472393,88.173782 57.956867,88.152290 65.418007,87.867798 
	C66.966553,87.808754 68.453148,86.124969 69.968292,85.189972 
	C70.347031,84.636078 70.725769,84.082184 71.404770,83.271172 
	C72.475075,82.993073 73.245117,82.972092 74.351761,83.025635 
	C75.865097,84.180725 77.023575,85.282013 78.221680,86.338364 
	C84.186363,91.597366 90.161484,96.844551 96.132927,102.095894 
z"/>
<path fill="#F39D20" opacity="1.000000" stroke="none" 
	d="
M206.094666,85.047874 
	C208.383987,90.416725 210.673309,95.785583 212.885498,101.785583 
	C213.229172,103.597794 213.649963,104.778877 214.070740,105.959961 
	C214.070740,105.959961 214.011993,105.999710 214.005676,106.383377 
	C213.999374,108.716576 213.999374,110.666100 213.999374,112.615631 
	C213.629990,112.865730 213.260590,113.115837 212.891205,113.365936 
	C200.716827,83.151222 178.964569,63.839035 147.697845,54.779961 
	C138.319504,53.226326 129.253845,51.794426 120.145821,50.722725 
	C118.856506,50.571018 117.360794,52.173447 115.548706,52.975670 
	C113.763321,52.983398 112.389854,52.979427 110.802505,52.772758 
	C109.719002,52.706619 108.849380,52.843178 107.559547,52.988609 
	C99.340187,52.997478 91.541039,52.997478 83.741882,52.997478 
	C84.161644,50.823677 84.830124,49.628223 85.838890,49.148853 
	C90.578529,46.896526 95.436226,44.893902 100.198051,42.686256 
	C101.859962,41.915771 103.367706,40.812771 104.945862,39.861629 
	C104.945862,39.861629 104.971603,39.929489 105.207298,39.959297 
	C105.624466,39.991795 105.805939,39.994480 106.435806,40.013023 
	C117.875923,39.387482 128.867661,38.746078 140.049103,38.444130 
	C143.849167,39.176735 147.459534,39.569881 151.069885,39.963032 
	C151.069885,39.963032 151.009338,39.987209 151.114868,40.295704 
	C155.091080,41.802536 158.961761,43.000870 162.832458,44.199211 
	C165.326447,45.408852 167.820419,46.618496 170.751831,48.300892 
	C172.126678,49.188927 173.064087,49.604210 174.001358,50.009094 
	C174.001221,49.998699 173.980438,49.999027 174.038422,50.329010 
	C177.268295,53.841064 179.815720,57.967731 185.109711,57.939804 
	C185.109711,57.939804 185.037201,57.947552 185.135864,58.118877 
	C185.387772,58.560474 185.588043,58.789635 185.835358,58.977676 
	C187.311157,59.974590 188.786957,60.971504 190.632996,62.293602 
	C192.946930,65.061356 194.890610,67.503937 196.834290,69.946503 
	C198.827728,72.744865 200.821152,75.543228 203.086304,78.861244 
	C203.571182,79.629967 203.818405,79.838722 204.099686,80.007164 
	C204.099686,80.007164 204.026932,79.992813 204.015045,80.226669 
	C204.002151,80.640335 204.001144,80.820129 204.049927,81.332382 
	C204.764694,82.792519 205.429672,83.920197 206.094666,85.047874 
z"/>
<path fill="#F5AD35" opacity="1.000000" stroke="none" 
	d="
M147.997025,55.016632 
	C178.964569,63.839035 200.716827,83.151222 212.891205,113.365936 
	C213.260590,113.115837 213.629990,112.865730 213.999374,112.615631 
	C213.999374,110.666100 213.999374,108.716576 214.021759,106.351768 
	C216.163132,115.473129 218.982986,124.977669 215.105026,134.749817 
	C214.818436,135.471985 215.008911,136.383484 214.625854,137.703629 
	C214.219070,139.118591 214.164047,140.036880 214.109009,140.955170 
	C214.373795,141.147644 214.638596,141.340118 214.481491,141.818420 
	C213.063019,144.239334 212.066437,146.374390 210.735062,149.226685 
	C209.204620,145.770844 207.911667,142.478683 206.294373,139.354401 
	C205.468781,137.759521 204.061386,136.465805 202.916962,135.035950 
	C202.916962,135.035950 202.984055,135.019852 202.857544,134.830078 
	C202.461685,134.430588 202.192322,134.220871 201.922958,134.011169 
	C201.922958,134.011169 201.988724,134.012253 201.988937,133.669434 
	C201.294113,132.227737 200.599075,131.128876 199.904037,130.029999 
	C199.904037,130.029999 199.972260,130.020004 199.966461,129.680588 
	C199.548798,125.685753 197.310562,123.794792 193.884293,123.051605 
	C193.884293,123.051605 193.956314,123.046509 193.912857,122.710266 
	C192.220230,121.268509 190.571060,120.162994 188.921890,119.057480 
	C188.921890,119.057480 188.990326,119.005196 188.989990,118.630539 
	C187.291855,113.322456 189.030334,109.015816 191.111252,104.590172 
	C194.653900,97.055801 193.707870,94.188301 186.837906,89.745415 
	C185.941849,87.945061 185.142044,86.491119 184.515442,84.966011 
	C180.701355,75.682617 174.042450,68.918198 165.116806,64.797134 
	C160.224823,62.538467 154.709335,61.337227 149.344055,60.534863 
	C147.065247,60.194077 144.450714,62.098259 141.615677,62.983196 
	C140.496384,62.984711 139.750168,62.985191 139.002686,62.657097 
	C138.999725,61.890255 138.998032,61.451992 139.248535,60.783615 
	C142.332840,58.707878 145.164932,56.862255 147.997025,55.016632 
z"/>
<path fill="#883A25" opacity="1.000000" stroke="none" 
	d="
M182.999786,197.022675 
	C179.002182,199.826523 175.288849,203.229752 170.939728,205.292404 
	C164.566803,208.314880 157.597061,210.057632 151.134796,212.917694 
	C138.813507,218.370804 129.324463,212.433136 120.242912,205.502243 
	C107.400688,195.701263 97.375366,183.129837 87.410622,170.333405 
	C87.727524,169.972427 87.913330,169.951065 88.445267,169.972900 
	C90.299141,170.964645 91.820343,171.892563 93.312340,172.865311 
	C100.545357,177.581070 107.770546,182.308838 115.256165,187.265900 
	C119.674416,188.993835 123.835007,190.488220 128.376953,192.005417 
	C130.493073,192.384476 132.227844,192.740723 134.086792,193.435120 
	C140.746689,195.180252 147.239197,197.462265 153.828293,197.787430 
	C163.515945,198.265533 173.272552,197.346512 182.999786,197.022675 
z"/>
<path fill="#338342" opacity="1.000000" stroke="none" 
	d="
M45.049725,59.215611 
	C66.764801,59.155121 88.479919,59.057899 110.194916,59.079605 
	C112.977631,59.082386 115.759720,59.703842 118.542099,60.038696 
	C117.445763,62.798134 116.400543,65.579391 115.235123,68.309341 
	C114.458557,70.128387 113.510567,71.874260 111.960114,73.668533 
	C104.865959,73.471375 98.450989,73.258560 91.671097,73.065033 
	C90.725044,74.300255 89.606598,75.560661 89.702599,76.720558 
	C89.815552,78.085442 91.365677,79.292229 91.624054,80.691063 
	C92.710388,86.572327 96.125259,88.636406 101.930992,88.077209 
	C106.070068,87.678543 110.278481,87.999825 114.455956,87.999825 
	C114.816208,88.718735 115.176468,89.437637 115.536720,90.156548 
	C112.690720,93.434166 109.844719,96.711784 106.925400,99.644943 
	C105.582207,98.362549 104.321136,97.412415 103.040871,96.488884 
	C98.752838,93.395660 93.848892,90.888962 90.277191,87.118950 
	C78.451790,74.636986 65.131195,65.039963 47.823101,61.878994 
	C46.771580,61.686954 45.968437,60.134872 45.049725,59.215611 
z"/>
<path fill="#133E23" opacity="1.000000" stroke="none" 
	d="
M65.793091,182.871964 
	C66.986282,182.501053 68.663620,181.876190 69.490952,182.458664 
	C77.246216,187.918655 85.978554,190.584229 95.863411,192.213882 
	C97.774910,193.246094 99.226791,193.836044 100.259918,194.851898 
	C108.740738,203.190872 117.066925,211.704895 127.522110,216.994034 
	C118.351189,217.379517 109.968246,216.142288 102.063881,212.211990 
	C97.069565,209.728653 91.979607,207.437698 86.932549,205.060455 
	C86.932549,205.060455 87.000153,205.002167 86.930382,204.702957 
	C85.883781,203.026138 85.694420,199.379242 82.965073,203.051956 
	C77.271019,196.427338 71.576965,189.802719 65.793091,182.871964 
z"/>
<path fill="#246B38" opacity="1.000000" stroke="none" 
	d="
M44.595154,59.141891 
	C45.968437,60.134872 46.771580,61.686954 47.823101,61.878994 
	C65.131195,65.039963 78.451790,74.636986 90.277191,87.118950 
	C93.848892,90.888962 98.752838,93.395660 103.040871,96.488884 
	C104.321136,97.412415 105.582207,98.362549 106.723984,99.823456 
	C106.395485,100.836716 106.195084,101.327003 105.994675,101.817291 
	C103.002296,101.887566 100.009903,101.957840 96.575226,102.062004 
	C90.161484,96.844551 84.186363,91.597366 78.221680,86.338364 
	C77.023575,85.282013 75.865097,84.180725 74.281830,82.686409 
	C71.894844,78.074112 69.160919,74.898666 64.004883,75.003693 
	C64.000847,75.000641 63.994068,75.011894 63.807411,74.715103 
	C56.250149,71.944283 48.885235,69.453110 41.506279,67.004211 
	C38.323311,65.947876 35.111294,64.979057 31.912474,63.970474 
	C32.637341,60.152679 34.830811,58.461166 38.782455,58.977360 
	C40.542419,59.207260 42.352985,59.049812 44.595154,59.141891 
z"/>
<path fill="#A4482B" opacity="1.000000" stroke="none" 
	d="
M183.278000,196.837936 
	C173.272552,197.346512 163.515945,198.265533 153.828293,197.787430 
	C147.239197,197.462265 140.746689,195.180252 134.215973,193.075714 
	C136.148727,191.917953 138.076492,191.457748 140.389832,190.994049 
	C145.582001,189.542572 150.053024,188.152527 155.445160,190.194382 
	C158.287430,191.270691 162.437820,188.892548 166.397507,188.053680 
	C168.649551,187.484818 170.699631,187.269440 172.308990,186.312729 
	C174.949936,184.742798 177.304825,182.691650 179.910431,181.169022 
	C181.061249,181.728088 182.132736,182.290054 183.094391,182.141449 
	C189.083557,181.215881 195.048141,180.131256 201.020874,179.099350 
	C195.199326,184.950638 189.377762,190.801910 183.278000,196.837936 
z"/>
<path fill="#A54A2F" opacity="1.000000" stroke="none" 
	d="
M165.997574,188.074158 
	C162.437820,188.892548 158.287430,191.270691 155.445160,190.194382 
	C150.053024,188.152527 145.582001,189.542572 140.380157,190.596527 
	C138.679733,189.160309 137.040680,187.000519 136.128342,187.273102 
	C132.551361,188.341812 130.017548,187.325378 128.067688,184.521240 
	C126.285416,181.958084 123.193695,178.950211 123.573708,176.607956 
	C123.979248,174.108307 127.472008,171.608566 130.172958,170.112503 
	C133.355942,168.349442 136.208450,169.277298 136.459457,174.459183 
	C144.451736,167.302856 148.358414,178.969009 156.048111,178.446411 
	C154.459213,176.371063 153.528549,175.155457 152.597885,173.939850 
	C153.050781,174.076340 153.503693,174.212814 153.956589,174.349289 
	C154.961349,172.246323 155.966125,170.143356 156.961609,167.750259 
	C156.958328,167.073456 156.964325,166.686768 156.970322,166.300095 
	C160.751953,167.748810 164.417801,169.035233 163.970139,174.424637 
	C163.532990,179.687195 159.323883,183.076645 154.150635,181.587402 
	C146.906540,179.502014 139.729797,177.170898 132.442886,175.254150 
	C130.582703,174.764847 128.416092,175.440353 126.318123,176.445236 
	C136.765457,186.272842 149.819473,186.025070 163.108139,186.608551 
	C164.407776,187.005814 165.202682,187.539978 165.997574,188.074158 
z"/>
<path fill="#C56940" opacity="1.000000" stroke="none" 
	d="
M156.590607,166.221130 
	C156.964325,166.686768 156.958328,167.073456 156.566437,167.730743 
	C155.123688,167.979156 154.066849,167.956970 152.696030,167.930771 
	C151.965134,167.922943 151.548187,167.919113 150.975647,167.574615 
	C150.450500,166.916351 150.124130,166.401031 149.705185,166.309555 
	C131.006348,162.225891 112.356834,157.732559 93.034988,158.654404 
	C94.388680,156.836792 95.676331,155.348190 96.963974,153.859573 
	C96.963974,153.859573 96.961670,153.937775 97.346481,153.950638 
	C106.916801,152.118439 116.097130,150.498596 125.335449,153.765823 
	C125.756096,153.914581 126.470322,153.233246 127.047806,152.938538 
	C136.768829,157.339752 146.489853,161.740967 156.590607,166.221130 
z"/>
<path fill="#5D2415" opacity="1.000000" stroke="none" 
	d="
M180.039948,168.002686 
	C176.681747,169.831421 173.323547,171.660156 168.955475,174.038803 
	C163.724274,165.827103 155.206833,160.417862 144.338196,157.650818 
	C143.683792,153.519516 144.466675,150.724197 148.445389,149.570465 
	C149.468781,149.273697 150.174759,147.882324 151.341309,146.994141 
	C152.072998,147.029373 152.489960,147.064270 152.988892,147.430145 
	C158.005203,155.212036 165.787445,158.881622 173.376343,162.665436 
	C174.792862,163.371704 177.096100,162.299591 178.990112,162.048187 
	C179.355164,163.809875 179.720230,165.571579 180.040833,167.663208 
	C179.996384,167.993134 180.039948,168.002686 180.039948,168.002686 
z"/>
<path fill="#F6C870" opacity="1.000000" stroke="none" 
	d="
M132.895050,69.003860 
	C131.958038,68.198395 131.021042,67.392921 130.365051,66.301323 
	C132.117188,66.151848 133.690033,66.695885 135.042648,66.358093 
	C142.970215,64.378403 150.492371,65.880585 157.845749,68.772881 
	C167.775284,72.678444 176.955688,77.382469 179.254974,89.367775 
	C179.402054,90.134415 181.687424,90.490829 183.231903,91.157135 
	C183.993454,91.512878 184.501205,91.749573 185.006104,92.293961 
	C184.997604,93.011909 184.991928,93.422165 184.571945,93.894287 
	C181.790619,94.232849 179.423615,94.509529 176.929138,94.477539 
	C174.879364,91.650337 172.906158,89.168755 171.045685,86.605354 
	C167.471954,81.681374 164.691757,75.729622 158.149857,74.154007 
	C149.802353,72.143501 141.319534,70.694740 132.895050,69.003860 
z"/>
<path fill="#F8D592" opacity="1.000000" stroke="none" 
	d="
M133.019257,69.318596 
	C141.319534,70.694740 149.802353,72.143501 158.149857,74.154007 
	C164.691757,75.729622 167.471954,81.681374 171.045685,86.605354 
	C172.906158,89.168755 174.879364,91.650337 176.552505,94.560310 
	C174.225128,95.653328 172.146881,96.354919 169.885956,96.748283 
	C169.006516,95.324577 167.982925,94.294693 167.664825,93.080055 
	C165.164810,83.534035 158.254898,78.969467 149.353745,76.606636 
	C144.636856,75.354523 139.898453,74.183342 135.169769,72.975624 
	C134.494339,71.861526 133.818909,70.747429 133.019257,69.318596 
z"/>
<path fill="#6D9236" opacity="1.000000" stroke="none" 
	d="
M130.151138,115.036377 
	C130.098557,114.877831 130.045990,114.719292 130.348083,114.296097 
	C137.345993,111.635017 144.120987,112.061852 151.118866,113.355850 
	C152.502121,114.079109 153.690430,114.534592 154.878738,114.990067 
	C155.880402,114.497536 156.882050,114.005005 158.456512,113.255943 
	C162.119614,112.718918 165.207199,112.402519 168.300919,112.166786 
	C172.414764,111.853325 176.579453,111.474274 178.623657,115.994034 
	C177.554901,116.015022 176.841995,116.027718 175.714264,116.020416 
	C173.997192,115.783218 172.702362,115.490005 171.391403,115.361923 
	C165.501297,114.786453 162.280838,116.853081 160.694580,121.972748 
	C159.574432,122.662048 158.794876,123.323029 157.736801,124.138351 
	C156.146393,124.267105 154.754807,124.509644 153.542358,124.149368 
	C151.958298,123.678680 150.515991,122.730957 148.993408,121.614983 
	C146.753693,115.815933 141.982361,114.463684 133.737183,116.871025 
	C132.354553,116.171638 131.252853,115.604012 130.151138,115.036377 
z"/>
<path fill="#BC6339" opacity="1.000000" stroke="none" 
	d="
M201.041092,179.072311 
	C195.048141,180.131256 189.083557,181.215881 183.094391,182.141449 
	C182.132736,182.290054 181.061249,181.728088 180.120880,180.907242 
	C181.953903,178.577393 183.795395,176.914062 185.436539,175.072174 
	C187.432449,172.832108 189.259598,170.441620 191.405243,167.979538 
	C192.123474,167.536835 192.596207,167.230820 193.068939,166.924774 
	C194.815979,166.366623 196.563019,165.808472 198.746033,165.540787 
	C201.154892,166.531982 203.127777,167.232697 205.100677,167.933411 
	C205.100677,167.933411 205.029419,167.984573 205.026001,168.391113 
	C205.017212,170.873337 205.011810,172.949036 205.006409,175.024734 
	C205.006424,175.024734 204.997543,174.993378 204.706573,175.071396 
	C203.948441,175.782227 203.481308,176.415054 203.014160,177.047882 
	C203.014160,177.047867 202.997437,176.995071 202.812500,177.132446 
	C202.418655,177.527832 202.209732,177.785828 202.000793,178.043823 
	C202.000793,178.043823 201.991531,177.991043 201.807419,178.127777 
	C201.359543,178.473846 201.150909,178.728348 200.997421,179.028046 
	C200.997421,179.028046 201.061310,179.045273 201.041092,179.072311 
z"/>
<path fill="#89A837" opacity="1.000000" stroke="none" 
	d="
M178.979477,115.985741 
	C176.579453,111.474274 172.414764,111.853325 168.300919,112.166786 
	C165.207199,112.402519 162.119614,112.718918 158.586121,112.987061 
	C159.521530,110.720871 160.900101,108.467026 162.937378,106.058235 
	C164.707565,105.585442 165.819061,105.267586 167.359497,104.962631 
	C173.223465,105.320442 178.658478,105.665352 184.134216,106.338463 
	C185.118591,107.431686 186.062271,108.196709 186.887772,109.251297 
	C186.125320,110.356819 185.481033,111.172783 184.836746,111.988754 
	C183.481201,113.579674 182.125641,115.170593 180.251160,116.762299 
	C179.481308,116.503967 179.230392,116.244858 178.979477,115.985741 
z"/>
<path fill="#6C321F" opacity="1.000000" stroke="none" 
	d="
M178.834076,161.751587 
	C177.096100,162.299591 174.792862,163.371704 173.376343,162.665436 
	C165.787445,158.881622 158.005203,155.212036 153.217255,147.171600 
	C155.957977,146.361694 158.552338,146.141327 161.146698,145.920944 
	C166.990479,151.098953 172.834274,156.276978 178.834076,161.751587 
z"/>
<path fill="#793420" opacity="1.000000" stroke="none" 
	d="
M191.159744,168.116211 
	C189.259598,170.441620 187.432449,172.832108 185.436539,175.072174 
	C183.795395,176.914062 181.953903,178.577393 179.990768,180.581650 
	C177.304825,182.691650 174.949936,184.742798 172.308990,186.312729 
	C170.699631,187.269440 168.649551,187.484818 166.397507,188.053680 
	C165.202682,187.539978 164.407776,187.005814 163.383392,186.287674 
	C165.682816,183.590439 168.211716,181.077148 171.300064,178.268616 
	C175.046616,175.783463 178.243729,173.607941 181.417892,171.399445 
	C184.352051,169.357910 186.592987,165.300232 191.159744,168.116211 
z"/>
<path fill="#F5BB4F" opacity="1.000000" stroke="none" 
	d="
M182.978073,91.038086 
	C181.687424,90.490829 179.402054,90.134415 179.254974,89.367775 
	C176.955688,77.382469 167.775284,72.678444 157.845749,68.772881 
	C150.492371,65.880585 142.970215,64.378403 135.042648,66.358093 
	C133.690033,66.695885 132.117188,66.151848 130.252167,66.007690 
	C129.406281,65.675560 128.954300,65.350929 128.256622,64.690338 
	C128.010925,64.354370 128.050247,63.888268 128.471695,63.912582 
	C130.588577,63.949657 132.284012,63.962410 134.362411,63.980606 
	C136.164902,63.652592 137.584442,63.319134 139.003967,62.985672 
	C139.750168,62.985191 140.496384,62.984711 142.025574,63.012745 
	C147.549850,63.701088 152.282440,64.837029 157.034180,64.923904 
	C167.684448,65.118607 183.133636,81.884270 182.978073,91.038086 
z"/>
<path fill="#1B4F2D" opacity="1.000000" stroke="none" 
	d="
M31.653168,64.179031 
	C35.111294,64.979057 38.323311,65.947876 41.506279,67.004211 
	C48.885235,69.453110 56.250149,71.944283 63.470192,74.755257 
	C54.367516,74.395988 45.405056,73.806671 36.469296,72.941574 
	C33.609631,72.664719 30.820637,71.657890 27.999310,70.985054 
	C29.130827,68.785904 30.262344,66.586746 31.653168,64.179031 
z"/>
<path fill="#87A833" opacity="1.000000" stroke="none" 
	d="
M150.923935,113.088066 
	C144.120987,112.061852 137.345993,111.635017 130.287018,114.053101 
	C128.917007,112.965401 127.962708,111.856041 127.011322,110.028183 
	C128.716751,107.878212 130.236710,105.630325 132.162964,105.199646 
	C135.341904,104.488876 138.783279,104.951881 142.486633,104.946365 
	C144.565750,105.390457 146.272308,105.808357 148.004974,106.560577 
	C148.995377,108.959282 149.959656,111.023674 150.923935,113.088066 
z"/>
<path fill="#42824E" opacity="1.000000" stroke="none" 
	d="
M106.407074,101.865456 
	C106.195084,101.327003 106.395485,100.836716 106.797302,100.167908 
	C109.844719,96.711784 112.690720,93.434166 115.536720,90.156548 
	C115.176468,89.437637 114.816208,88.718735 114.455956,87.999825 
	C110.278481,87.999825 106.070068,87.678543 101.930992,88.077209 
	C96.125259,88.636406 92.710388,86.572327 91.624054,80.691063 
	C91.365677,79.292229 89.815552,78.085442 89.702599,76.720558 
	C89.606598,75.560661 90.725044,74.300255 91.796928,73.348648 
	C92.525696,74.403717 92.763702,75.194473 93.001709,75.985229 
	C94.132774,78.863625 95.263840,81.742020 96.547188,85.007942 
	C102.400337,85.007942 108.335075,84.956680 114.268425,85.025734 
	C118.307106,85.072739 119.476219,87.006477 117.645042,90.632378 
	C116.095505,93.700592 114.711250,96.966339 112.558960,99.570312 
	C111.398865,100.973862 108.780113,101.171761 106.407074,101.865456 
z"/>
<path fill="#D9A74E" opacity="1.000000" stroke="none" 
	d="
M104.541840,39.910664 
	C103.367706,40.812771 101.859962,41.915771 100.198051,42.686256 
	C95.436226,44.893902 90.578529,46.896526 85.838890,49.148853 
	C84.830124,49.628223 84.161644,50.823677 83.741882,52.997478 
	C91.541039,52.997478 99.340187,52.997478 107.939217,53.003418 
	C109.498184,52.998055 110.257286,52.986755 111.016380,52.975456 
	C112.389854,52.979427 113.763321,52.983398 115.909096,52.995392 
	C117.775589,53.341095 118.869781,53.678787 119.965683,54.320602 
	C119.972534,55.030167 119.977676,55.435608 119.982819,55.841049 
	C117.891914,55.556179 115.796547,54.998268 113.710869,55.032394 
	C103.123245,55.205662 92.538963,55.586090 81.951279,55.749275 
	C80.310135,55.774567 78.657448,55.051682 75.410324,54.308777 
	C84.425629,46.094986 93.843742,42.191223 104.541840,39.910664 
z"/>
<path fill="#F9DEA8" opacity="1.000000" stroke="none" 
	d="
M135.100281,73.333214 
	C139.898453,74.183342 144.636856,75.354523 149.353745,76.606636 
	C158.254898,78.969467 165.164810,83.534035 167.664825,93.080055 
	C167.982925,94.294693 169.006516,95.324577 169.744446,97.064896 
	C168.538345,98.154778 167.291016,98.619812 165.969086,98.698708 
	C163.734756,86.927429 155.871460,81.423050 145.456375,78.685127 
	C142.422943,77.887688 139.270081,77.544556 136.171967,76.993179 
	C135.791565,75.892395 135.411163,74.791595 135.100281,73.333214 
z"/>
<path fill="#2C4F39" opacity="1.000000" stroke="none" 
	d="
M27.653240,98.203644 
	C30.162525,98.284912 32.408772,98.936081 34.661022,98.957558 
	C45.878334,99.064575 57.098251,98.936646 68.314148,99.101860 
	C69.578537,99.120476 70.823395,100.465057 72.033203,101.512688 
	C58.284222,101.878807 44.579319,101.921318 30.874489,101.980576 
	C28.497803,101.990852 26.337624,101.856392 27.653240,98.203644 
z"/>
<path fill="#F8E5B6" opacity="1.000000" stroke="none" 
	d="
M136.142792,77.291580 
	C139.270081,77.544556 142.422943,77.887688 145.456375,78.685127 
	C155.871460,81.423050 163.734756,86.927429 165.941681,98.902969 
	C165.988892,99.493378 165.927216,99.900681 165.945984,99.935730 
	C165.964737,99.970772 165.902374,99.921402 165.625610,100.014526 
	C164.936310,100.723671 164.523788,101.339684 163.950851,102.177994 
	C163.515259,102.639183 163.240097,102.878067 162.964920,103.116959 
	C162.221756,103.069397 161.478577,103.021835 160.439972,102.545959 
	C160.551559,99.928635 161.522812,97.669151 161.259827,95.563820 
	C160.469406,89.235413 152.321411,81.805817 146.023590,81.380501 
	C145.386795,81.337486 144.673935,82.420891 143.667252,82.982498 
	C142.899338,82.978699 142.460526,82.973961 141.963379,82.712997 
	C141.270386,82.300163 140.635742,82.143562 139.693573,81.987137 
	C138.975967,81.987877 138.565918,81.988441 138.155869,81.989014 
	C138.155869,81.989006 137.997772,81.578697 137.954666,81.068390 
	C137.663895,80.041237 137.416229,79.524399 137.168564,79.007561 
	C136.816910,78.535034 136.465256,78.062500 136.142792,77.291580 
z"/>
<path fill="#29523A" opacity="1.000000" stroke="none" 
	d="
M69.993195,159.031311 
	C62.489468,150.327179 54.985737,141.623047 47.482010,132.918930 
	C47.767208,132.177292 48.052406,131.435669 48.337608,130.694046 
	C52.652500,130.694046 56.967392,130.694046 61.646488,131.125763 
	C62.020065,131.735748 62.029434,131.913986 62.038803,132.092209 
	C59.211830,132.585953 56.384857,133.079712 52.477333,133.762177 
	C57.815994,140.280502 62.758076,146.314606 67.988617,152.851791 
	C68.482635,153.618271 68.731842,153.830429 69.024681,153.991318 
	C69.024681,153.991318 68.997299,154.002045 69.110443,154.174622 
	C69.389565,154.582733 69.590866,154.782684 69.827492,154.947067 
	C69.861565,155.115326 69.895630,155.283600 69.967712,156.089722 
	C70.001564,157.495499 69.997375,158.263397 69.993195,159.031311 
z"/>
<path fill="#A1BB39" opacity="1.000000" stroke="none" 
	d="
M142.114059,104.920181 
	C138.783279,104.951881 135.341904,104.488876 132.162964,105.199646 
	C130.236710,105.630325 128.716751,107.878212 126.991348,109.702164 
	C125.542900,106.818832 124.117355,103.543015 122.600845,99.744217 
	C127.271118,97.099701 132.045578,97.279556 136.476410,99.849915 
	C138.616013,101.091125 140.250732,103.202698 142.114059,104.920181 
z"/>
<path fill="#2A4231" opacity="1.000000" stroke="none" 
	d="
M127.982071,216.990662 
	C117.066925,211.704895 108.740738,203.190872 100.259918,194.851898 
	C99.226791,193.836044 97.774910,193.246094 96.270966,192.234985 
	C96.027214,191.841263 96.029594,191.671341 96.325592,191.111481 
	C97.433609,190.466370 98.248016,190.211197 99.062416,189.956009 
	C99.062416,189.956009 99.019966,189.999649 99.159653,190.181381 
	C99.568413,190.571732 99.837502,190.780350 100.106583,190.988968 
	C106.417351,196.801712 112.570732,202.799225 119.097443,208.358429 
	C123.059921,211.733475 127.608185,214.418762 131.863983,217.455002 
	C132.226944,217.713959 132.368484,218.283279 132.890488,219.191330 
	C131.700226,219.458771 130.713135,219.680557 129.352295,219.550323 
	C128.646378,218.462433 128.314224,217.726547 127.982071,216.990662 
z"/>
<path fill="#2E4B37" opacity="1.000000" stroke="none" 
	d="
M98.891144,189.667542 
	C98.248016,190.211197 97.433609,190.466370 96.329254,190.856598 
	C87.469727,180.528351 78.900162,170.065063 70.161896,159.316559 
	C69.997375,158.263397 70.001564,157.495499 70.010460,156.343658 
	C76.974083,163.898529 83.963646,171.810760 90.876556,179.789398 
	C93.579620,182.909164 96.110550,186.178070 98.891144,189.667542 
z"/>
<path fill="#204330" opacity="1.000000" stroke="none" 
	d="
M127.522110,216.994034 
	C128.314224,217.726547 128.646378,218.462433 128.994324,219.508575 
	C114.007301,220.768082 100.565948,216.492126 88.506554,207.659348 
	C87.875076,207.196854 87.490227,206.397659 86.961555,205.407837 
	C91.979607,207.437698 97.069565,209.728653 102.063881,212.211990 
	C109.968246,216.142288 118.351189,217.379517 127.522110,216.994034 
z"/>
<path fill="#2C503B" opacity="1.000000" stroke="none" 
	d="
M27.728098,71.257843 
	C30.820637,71.657890 33.609631,72.664719 36.469296,72.941574 
	C45.405056,73.806671 54.367516,74.395988 63.656849,75.052048 
	C63.994068,75.011894 64.000847,75.000641 64.080978,75.320663 
	C64.759544,76.781898 65.357994,77.923111 65.956436,79.064323 
	C54.841415,73.660141 42.953938,76.750389 31.421389,76.006355 
	C28.214191,75.799446 26.101467,75.412277 27.728098,71.257843 
z"/>
<path fill="#274F3A" opacity="1.000000" stroke="none" 
	d="
M35.199238,147.319000 
	C38.090813,146.598602 39.711105,147.946213 41.431160,150.502625 
	C44.239517,154.676529 48.106205,158.121368 51.154163,162.155075 
	C55.612720,168.055557 62.326736,172.390137 63.968407,180.666107 
	C54.419796,169.908783 44.860596,158.771225 35.199238,147.319000 
z"/>
<path fill="#EDA32E" opacity="1.000000" stroke="none" 
	d="
M206.465546,85.032104 
	C205.429672,83.920197 204.764694,82.792519 204.327408,81.325592 
	C204.739792,80.974648 204.924469,80.962944 205.109131,80.951248 
	C205.109131,80.951248 205.512543,80.972603 205.956573,81.081581 
	C209.952866,77.333649 216.915436,75.382095 221.656723,77.086975 
	C221.102707,78.424660 220.553268,79.751312 220.003830,81.077965 
	C220.003830,81.077965 220.003922,81.010811 219.737640,81.046524 
	C218.993057,81.420845 218.514755,81.759453 218.036438,82.098053 
	C214.901764,85.368423 211.624649,88.092102 206.465546,85.032104 
z"/>
<path fill="#245036" opacity="1.000000" stroke="none" 
	d="
M70.683197,109.095734 
	C71.940453,113.269722 69.891769,115.147980 66.058914,117.213654 
	C59.260185,120.877754 52.233467,121.223137 44.953777,120.950943 
	C43.405262,120.893044 41.878998,120.239815 40.187698,119.514969 
	C45.116249,118.750710 50.233776,118.571861 55.274128,117.852356 
	C61.353920,116.984459 66.435051,114.030151 70.683197,109.095734 
z"/>
<path fill="#244F34" opacity="1.000000" stroke="none" 
	d="
M69.505081,85.136230 
	C68.453148,86.124969 66.966553,87.808754 65.418007,87.867798 
	C57.956867,88.152290 50.472393,88.173782 43.011307,87.890633 
	C40.864761,87.809174 38.768551,86.401253 36.379227,85.393066 
	C47.086750,85.150581 58.064304,85.116524 69.505081,85.136230 
z"/>
<path fill="#FBF1D6" opacity="1.000000" stroke="none" 
	d="
M142.021729,82.969223 
	C142.460526,82.973961 142.899338,82.978699 143.901306,83.234711 
	C146.993408,84.727753 149.538589,85.937675 152.048157,87.217422 
	C158.731522,90.625595 158.200684,96.799538 157.991180,102.841728 
	C157.055328,102.465599 156.119476,102.089470 155.082062,100.991547 
	C155.607025,95.204597 153.268677,91.481461 149.097519,89.193810 
	C146.296875,87.657814 142.974274,87.073509 139.885208,86.063400 
	C139.885208,86.063400 139.962769,86.046547 139.849762,85.882195 
	C139.598343,85.440002 139.407715,85.204414 139.164856,85.011078 
	C138.780609,84.227531 138.396362,83.443977 138.084000,82.324722 
	C138.565918,81.988441 138.975967,81.987877 139.894318,82.196938 
	C140.942337,82.594116 141.482025,82.781670 142.021729,82.969223 
z"/>
<path fill="#FBEBC5" opacity="1.000000" stroke="none" 
	d="
M158.324615,102.911850 
	C158.200684,96.799538 158.731522,90.625595 152.048157,87.217422 
	C149.538589,85.937675 146.993408,84.727753 144.230408,83.233780 
	C144.673935,82.420891 145.386795,81.337486 146.023590,81.380501 
	C152.321411,81.805817 160.469406,89.235413 161.259827,95.563820 
	C161.522812,97.669151 160.551559,99.928635 160.074295,102.469482 
	C159.555374,102.874870 159.106720,102.928421 158.324615,102.911850 
z"/>
<path fill="#728F52" opacity="1.000000" stroke="none" 
	d="
M130.106476,115.385498 
	C131.252853,115.604012 132.354553,116.171638 133.962677,117.129684 
	C139.316971,119.009567 144.164825,120.499023 149.012695,121.988472 
	C150.515991,122.730957 151.958298,123.678680 153.542358,124.149368 
	C154.754807,124.509644 156.146393,124.267105 158.018890,124.159958 
	C158.767563,124.043121 158.955643,124.059006 159.143707,124.074890 
	C158.745880,126.108810 158.348038,128.142731 157.634506,130.509857 
	C155.930756,130.547913 154.542709,130.252747 153.154648,129.957596 
	C152.516998,124.869186 149.583908,123.708961 144.682816,123.815636 
	C138.588791,123.948288 133.261719,121.453873 130.106476,115.385498 
z"/>
<path fill="#FDFAE9" opacity="1.000000" stroke="none" 
	d="
M139.936462,86.413651 
	C142.974274,87.073509 146.296875,87.657814 149.097519,89.193810 
	C153.268677,91.481461 155.607025,95.204597 154.972183,100.692436 
	C149.971832,96.331390 144.979782,91.547646 139.936462,86.413651 
z"/>
<path fill="#EAAA42" opacity="1.000000" stroke="none" 
	d="
M201.996201,49.161396 
	C205.628372,46.562481 209.260544,43.963562 212.892715,41.364643 
	C213.268158,41.737267 213.643616,42.109894 214.019073,42.482517 
	C212.970612,50.157307 206.271378,54.567585 202.311646,60.860294 
	C201.944122,60.947762 201.843399,60.847614 201.885284,60.479523 
	C202.701385,58.523384 203.584518,56.977795 204.224106,55.337261 
	C205.164108,52.926178 206.109955,50.371731 202.001175,49.791084 
	C201.999481,49.581188 201.996201,49.161392 201.996201,49.161396 
z"/>
<path fill="#E7B14D" opacity="1.000000" stroke="none" 
	d="
M202.968430,135.420441 
	C204.061386,136.465805 205.468781,137.759521 206.294373,139.354401 
	C207.911667,142.478683 209.204620,145.770844 210.735062,149.226685 
	C212.066437,146.374390 213.063019,144.239334 214.426331,142.068359 
	C213.862183,145.624878 213.052750,149.255569 211.938812,152.790298 
	C211.512070,154.144455 210.389755,155.279419 209.114822,157.234283 
	C206.816925,149.155029 204.918427,142.479965 202.968430,135.420441 
z"/>
<path fill="#E1B654" opacity="1.000000" stroke="none" 
	d="
M184.926285,112.386292 
	C185.481033,111.172783 186.125320,110.356819 187.079041,108.956551 
	C188.573227,104.882095 189.757950,101.391945 190.969940,97.480003 
	C191.384933,91.526886 186.878021,95.116180 184.986267,93.832413 
	C184.991928,93.422165 184.997604,93.011909 185.185852,92.080566 
	C185.917038,91.059296 186.465607,90.559120 187.014191,90.058945 
	C193.707870,94.188301 194.653900,97.055801 191.111252,104.590172 
	C189.030334,109.015816 187.291855,113.322456 188.966843,118.666840 
	C185.965958,118.021271 184.293777,116.149704 184.926285,112.386292 
z"/>
<path fill="#E2AE50" opacity="1.000000" stroke="none" 
	d="
M172.900467,47.092506 
	C172.348358,45.876728 170.989395,44.217300 171.374527,43.516865 
	C173.954239,38.825150 176.834671,34.290665 179.801453,29.827419 
	C180.330688,29.031221 181.717255,28.804884 184.164215,28.748552 
	C182.992508,33.726162 181.820786,38.703773 180.224670,43.568699 
	C179.800262,41.315098 179.800262,39.174183 179.800262,37.033272 
	C179.182404,36.849545 178.564560,36.665821 177.946701,36.482098 
	C176.264618,40.018902 174.582535,43.555702 172.900467,47.092506 
z"/>
<path fill="#E5B159" opacity="1.000000" stroke="none" 
	d="
M220.370636,81.038620 
	C220.553268,79.751312 221.102707,78.424660 221.656723,77.086975 
	C216.915436,75.382095 209.952866,77.333649 206.158325,81.072174 
	C207.356552,79.318962 208.509628,76.794853 210.292267,76.218719 
	C215.318039,74.594444 220.580917,73.649887 225.800262,72.716820 
	C227.084625,72.487221 228.559464,73.323151 229.946732,73.669220 
	C229.256500,74.788460 228.814514,76.262039 227.825546,76.954880 
	C225.607162,78.509003 223.116974,79.675156 220.370636,81.038620 
z"/>
<path fill="#B1C163" opacity="1.000000" stroke="none" 
	d="
M142.486633,104.946365 
	C140.250732,103.202698 138.616013,101.091125 136.476410,99.849915 
	C132.045578,97.279556 127.271118,97.099701 122.279251,99.520416 
	C121.038734,96.676025 121.201340,96.266861 124.069878,96.012192 
	C133.194260,95.202126 141.122879,97.908562 147.893890,104.907089 
	C148.006790,105.776245 147.992828,106.001251 147.978851,106.226265 
	C146.272308,105.808357 144.565750,105.390457 142.486633,104.946365 
z"/>
<path fill="#EDA128" opacity="1.000000" stroke="none" 
	d="
M172.911987,47.054535 
	C174.582535,43.555702 176.264618,40.018902 177.946701,36.482098 
	C178.564560,36.665821 179.182404,36.849545 179.800262,37.033272 
	C179.800262,39.174183 179.800262,41.315098 179.891388,43.781525 
	C178.757233,45.822418 177.531937,47.537800 175.843658,49.603291 
	C174.913925,49.968613 174.447189,49.983822 173.980438,49.999027 
	C173.980438,49.999027 174.001221,49.998699 173.986145,49.670540 
	C173.596283,48.560520 173.221481,47.778652 172.846664,46.996788 
	C172.846664,46.996788 172.923523,47.016563 172.911987,47.054535 
z"/>
<path fill="#6D382A" opacity="1.000000" stroke="none" 
	d="
M191.405243,167.979538 
	C186.592987,165.300232 184.352051,169.357910 181.417892,171.399445 
	C178.243729,173.607941 175.046616,175.783463 171.506378,177.998260 
	C174.150665,174.918823 177.148102,171.814529 180.092743,168.356445 
	C180.039948,168.002686 179.996384,167.993134 180.001236,168.014832 
	C184.222046,167.445679 187.874817,162.739380 192.864258,166.614868 
	C192.596207,167.230820 192.123474,167.536835 191.405243,167.979538 
z"/>
<path fill="#468558" opacity="1.000000" stroke="none" 
	d="
M93.469231,75.972885 
	C92.763702,75.194473 92.525696,74.403717 92.161850,73.329346 
	C98.450989,73.258560 104.865959,73.471375 111.667999,73.851227 
	C110.488625,74.673332 108.949036,75.802330 107.350571,75.892967 
	C102.892357,76.145752 98.409744,75.968193 93.469231,75.972885 
z"/>
<path fill="#B77656" opacity="1.000000" stroke="none" 
	d="
M126.823708,152.624207 
	C126.470322,153.233246 125.756096,153.914581 125.335449,153.765823 
	C116.097130,150.498596 106.916801,152.118439 97.307556,153.946762 
	C106.520599,148.465729 116.499092,149.268845 126.823708,152.624207 
z"/>
<path fill="#244F34" opacity="1.000000" stroke="none" 
	d="
M62.455864,132.062790 
	C62.029434,131.913986 62.020065,131.735748 62.000992,131.290253 
	C68.113754,128.919998 74.236221,126.817017 80.679794,124.856140 
	C74.958244,127.343300 68.915588,129.688339 62.455864,132.062790 
z"/>
<path fill="#708854" opacity="1.000000" stroke="none" 
	d="
M159.587799,124.056839 
	C158.955643,124.059006 158.767563,124.043121 158.297394,124.005615 
	C158.794876,123.323029 159.574432,122.662048 161.122650,121.992599 
	C167.370758,121.760063 172.938019,121.746262 176.129074,116.040405 
	C176.841995,116.027718 177.554901,116.015022 178.623657,115.994034 
	C179.230392,116.244858 179.481308,116.503967 179.963058,116.907272 
	C174.735764,123.023666 167.677628,124.378990 159.587799,124.056839 
z"/>
<path fill="#4E603B" opacity="1.000000" stroke="none" 
	d="
M160.898407,145.642120 
	C158.552338,146.141327 155.957977,146.361694 153.135254,146.840607 
	C152.489960,147.064270 152.072998,147.029373 151.339828,146.690125 
	C151.033356,145.981049 151.043091,145.576294 151.052841,145.171555 
	C151.490829,143.590271 151.928818,142.008987 152.875183,140.352417 
	C154.182449,138.690460 154.981308,137.103790 155.712891,135.650757 
	C156.295975,136.009445 157.071335,136.486404 157.846680,136.963364 
	C158.665894,139.801804 156.388748,143.673645 160.898407,145.642120 
z"/>
<path fill="#B9C366" opacity="1.000000" stroke="none" 
	d="
M162.889618,103.388809 
	C163.240097,102.878067 163.515259,102.639183 164.358459,102.170326 
	C165.251785,101.267372 165.577072,100.594391 165.902374,99.921402 
	C165.902374,99.921402 165.964737,99.970772 166.165314,100.323349 
	C168.103989,99.828209 169.762558,98.598198 171.597610,98.216415 
	C174.899994,97.529350 178.308136,97.350792 181.283035,97.194214 
	C175.921738,99.345726 170.123062,99.728470 166.930557,104.949738 
	C165.819061,105.267586 164.707565,105.585442 163.250122,105.932648 
	C162.874207,105.194885 162.844269,104.427765 162.889618,103.388809 
z"/>
<path fill="#562E21" opacity="1.000000" stroke="none" 
	d="
M150.716354,145.234283 
	C151.043091,145.576294 151.033356,145.981049 151.025085,146.689789 
	C150.174759,147.882324 149.468781,149.273697 148.445389,149.570465 
	C144.466675,150.724197 143.683792,153.519516 143.993774,157.484543 
	C142.299225,156.807816 140.604187,155.727219 137.789749,153.932999 
	C142.677078,150.580612 146.528473,147.938812 150.716354,145.234283 
z"/>
<path fill="#E8A952" opacity="1.000000" stroke="none" 
	d="
M139.859390,38.104675 
	C128.867661,38.746078 117.875923,39.387482 106.440216,39.800529 
	C105.996246,39.572174 106.004837,39.146908 106.004837,39.146908 
	C117.758301,36.061115 129.731689,37.006001 141.519287,37.594902 
	C140.869415,38.027264 140.364395,38.065968 139.859390,38.104675 
z"/>
<path fill="#EAAA42" opacity="1.000000" stroke="none" 
	d="
M196.782562,69.605515 
	C194.890610,67.503937 192.946930,65.061356 190.980713,62.242485 
	C190.747757,60.972492 190.537308,60.078796 190.882050,59.080841 
	C191.629456,58.986839 191.821686,58.997101 192.179169,59.299667 
	C193.578400,61.056820 194.812378,62.521664 195.936340,63.855907 
	C198.201096,62.702534 200.022247,61.775074 201.843399,60.847610 
	C201.843399,60.847614 201.944122,60.947762 201.994110,60.998199 
	C200.031967,63.089863 198.019852,65.131088 195.566299,67.620117 
	C195.497543,67.523033 196.114182,68.393776 196.782562,69.605515 
z"/>
<path fill="#91553F" opacity="1.000000" stroke="none" 
	d="
M88.099129,169.929718 
	C87.913330,169.951065 87.727524,169.972427 87.264267,170.032227 
	C84.521103,167.289703 82.055397,164.508743 78.961411,161.019180 
	C81.346924,160.075409 82.769005,159.512787 84.588081,159.211197 
	C84.998985,159.667740 85.012886,159.863266 85.033295,160.435013 
	C86.059578,163.850739 87.079353,166.890228 88.099129,169.929718 
z"/>
<path fill="#F1B341" opacity="1.000000" stroke="none" 
	d="
M120.321609,56.021263 
	C119.977676,55.435608 119.972534,55.030167 120.304146,54.373497 
	C122.424797,55.750214 124.208710,57.378151 126.163223,59.299755 
	C126.905975,61.025036 127.478111,62.456650 128.050247,63.888268 
	C128.050247,63.888268 128.010925,64.354370 127.989883,64.587334 
	C123.536301,63.640232 120.932564,60.909397 120.321609,56.021263 
z"/>
<path fill="#587B45" opacity="1.000000" stroke="none" 
	d="
M157.895493,136.536774 
	C157.071335,136.486404 156.295975,136.009445 155.712891,135.650757 
	C154.981308,137.103790 154.182449,138.690460 153.158249,140.126129 
	C152.958908,136.937225 152.984894,133.899338 153.082764,130.409515 
	C154.542709,130.252747 155.930756,130.547913 157.584656,130.903412 
	C157.881760,132.679245 157.913040,134.394730 157.895493,136.536774 
z"/>
<path fill="#235B37" opacity="1.000000" stroke="none" 
	d="
M65.972809,79.046295 
	C65.357994,77.923111 64.759544,76.781898 64.085007,75.323715 
	C69.160919,74.898666 71.894844,78.074112 73.945244,82.611893 
	C73.245117,82.972092 72.475075,82.993073 71.319580,83.025055 
	C69.798981,82.058922 68.663841,81.081787 67.103134,79.786224 
	C66.462601,79.270203 66.218185,79.120750 65.944328,79.019440 
	C65.944328,79.019440 65.989182,79.028259 65.972809,79.046295 
z"/>
<path fill="#BB6D50" opacity="1.000000" stroke="none" 
	d="
M85.026794,160.058777 
	C85.012886,159.863266 84.998985,159.667740 84.960617,159.179230 
	C88.687241,157.243515 92.438324,155.600830 96.576691,153.908844 
	C95.676331,155.348190 94.388680,156.836792 92.721329,158.887909 
	C89.903343,159.653214 87.465073,159.856003 85.026794,160.058777 
z"/>
<path fill="#EAAA42" opacity="1.000000" stroke="none" 
	d="
M174.038422,50.329010 
	C174.447189,49.983822 174.913925,49.968613 175.728836,49.928047 
	C178.988358,52.368240 181.899734,54.833794 184.960419,57.619576 
	C179.815720,57.967731 177.268295,53.841064 174.038422,50.329010 
z"/>
<path fill="#98AD57" opacity="1.000000" stroke="none" 
	d="
M148.004974,106.560577 
	C147.992828,106.001251 148.006790,105.776245 148.041656,105.213745 
	C150.295502,108.016724 152.528442,111.157196 154.820053,114.643867 
	C153.690430,114.534592 152.502121,114.079109 151.118866,113.355850 
	C149.959656,111.023674 148.995377,108.959282 148.004974,106.560577 
z"/>
<path fill="#E7B14D" opacity="1.000000" stroke="none" 
	d="
M192.013916,59.007362 
	C191.821686,58.997101 191.629456,58.986839 191.148956,58.960453 
	C193.650909,56.303307 196.441132,53.662289 199.614807,51.007591 
	C199.998260,50.993916 200.064575,51.045769 200.000046,51.390213 
	C197.294983,54.158894 194.654449,56.583130 192.013916,59.007362 
z"/>
<path fill="#E8A748" opacity="1.000000" stroke="none" 
	d="
M162.817322,43.803871 
	C158.961761,43.000870 155.091080,41.802536 151.119583,40.263451 
	C154.946579,41.084648 158.874390,42.246593 162.817322,43.803871 
z"/>
<path fill="#E1B654" opacity="1.000000" stroke="none" 
	d="
M193.922028,123.400940 
	C197.310562,123.794792 199.548798,125.685753 199.958618,129.714157 
	C197.957626,127.974846 195.958679,125.862556 193.922028,123.400940 
z"/>
<path fill="#E8A748" opacity="1.000000" stroke="none" 
	d="
M140.049103,38.444130 
	C140.364395,38.065968 140.869415,38.027264 141.752853,37.970268 
	C144.976700,38.397053 147.822113,38.842133 150.868713,39.625122 
	C147.459534,39.569881 143.849167,39.176735 140.049103,38.444130 
z"/>
<path fill="#E1B654" opacity="1.000000" stroke="none" 
	d="
M189.045883,119.369362 
	C190.571060,120.162994 192.220230,121.268509 193.908386,122.746078 
	C192.354858,121.972511 190.762375,120.826874 189.045883,119.369362 
z"/>
<path fill="#AC694C" opacity="1.000000" stroke="none" 
	d="
M205.340179,174.873230 
	C205.011810,172.949036 205.017212,170.873337 205.043427,168.350861 
	C208.041245,169.928574 207.607330,172.258102 205.340179,174.873230 
z"/>
<path fill="#204330" opacity="1.000000" stroke="none" 
	d="
M83.173141,203.301453 
	C85.694420,199.379242 85.883781,203.026138 86.900246,204.736115 
	C85.753654,204.562653 84.567436,204.056808 83.173141,203.301453 
z"/>
<path fill="#AC694C" opacity="1.000000" stroke="none" 
	d="
M204.939606,167.611816 
	C203.127777,167.232697 201.154892,166.531982 199.094055,165.479218 
	C200.930237,165.848190 202.854385,166.569214 204.939606,167.611816 
z"/>
<path fill="#EAAA42" opacity="1.000000" stroke="none" 
	d="
M172.815460,47.316666 
	C173.221481,47.778652 173.596283,48.560520 173.986298,49.680939 
	C173.064087,49.604210 172.126678,49.188927 171.076080,48.467918 
	C171.569992,47.986980 172.177124,47.811764 172.815460,47.316666 
z"/>
<path fill="#E1B654" opacity="1.000000" stroke="none" 
	d="
M199.950623,130.373993 
	C200.599075,131.128876 201.294113,132.227737 201.977570,133.700287 
	C201.309723,132.955307 200.653458,131.836655 199.950623,130.373993 
z"/>
<path fill="#F5AD35" opacity="1.000000" stroke="none" 
	d="
M214.030899,105.586685 
	C213.649963,104.778877 213.229172,103.597794 212.899689,102.166824 
	C213.324356,103.015762 213.657715,104.114586 214.030899,105.586685 
z"/>
<path fill="#E7B14D" opacity="1.000000" stroke="none" 
	d="
M214.152847,140.638855 
	C214.164047,140.036880 214.219070,139.118591 214.556030,138.116791 
	C214.624207,138.796371 214.410446,139.559464 214.152847,140.638855 
z"/>
<path fill="#AC694C" opacity="1.000000" stroke="none" 
	d="
M203.287384,176.934082 
	C203.481308,176.415054 203.948441,175.782227 204.722046,175.076553 
	C204.539200,175.609222 204.049896,176.214752 203.287384,176.934082 
z"/>
<path fill="#FBEBC5" opacity="1.000000" stroke="none" 
	d="
M137.092163,79.329071 
	C137.416229,79.524399 137.663895,80.041237 137.932999,80.849594 
	C137.641541,80.644272 137.328659,80.147430 137.092163,79.329071 
z"/>
<path fill="#E5B159" opacity="1.000000" stroke="none" 
	d="
M218.348206,82.049667 
	C218.514755,81.759453 218.993057,81.420845 219.770721,81.052261 
	C219.600067,81.348602 219.130035,81.674934 218.348206,82.049667 
z"/>
<path fill="#2E4B37" opacity="1.000000" stroke="none" 
	d="
M99.971413,190.767700 
	C99.837502,190.780350 99.568413,190.571732 99.153679,190.151535 
	C99.284096,190.142120 99.560165,190.344284 99.971413,190.767700 
z"/>
<path fill="#E5B159" opacity="1.000000" stroke="none" 
	d="
M205.015015,80.704323 
	C204.924469,80.962944 204.739792,80.974648 204.277618,80.993141 
	C204.001144,80.820129 204.002151,80.640335 204.023193,80.190498 
	C204.335800,80.099442 204.628342,80.278419 205.015015,80.704323 
z"/>
<path fill="#D9A74E" opacity="1.000000" stroke="none" 
	d="
M105.739212,39.107315 
	C106.004837,39.146908 105.996246,39.572174 105.991829,39.784668 
	C105.805939,39.994480 105.624466,39.991795 105.171013,39.959694 
	C105.090553,39.642765 105.282074,39.355244 105.739212,39.107315 
z"/>
<path fill="#EAAA42" opacity="1.000000" stroke="none" 
	d="
M185.863876,58.714378 
	C185.588043,58.789635 185.387772,58.560474 185.135223,58.082428 
	C185.321426,58.066795 185.606903,58.258938 185.863876,58.714378 
z"/>
<path fill="#E5B159" opacity="1.000000" stroke="none" 
	d="
M204.022430,79.757034 
	C203.818405,79.838722 203.571182,79.629967 203.225037,79.179298 
	C203.376450,79.154106 203.660812,79.330513 204.022430,79.757034 
z"/>
<path fill="#2C503B" opacity="1.000000" stroke="none" 
	d="
M66.054077,79.220505 
	C66.218185,79.120750 66.462601,79.270203 66.820465,79.628006 
	C66.628288,79.815567 66.361771,79.693344 66.054077,79.220505 
z"/>
<path fill="#2E4B37" opacity="1.000000" stroke="none" 
	d="
M68.906174,153.772369 
	C68.731842,153.830429 68.482635,153.618271 68.147209,153.144592 
	C68.326271,153.075806 68.583046,153.282166 68.906174,153.772369 
z"/>
<path fill="#274F3A" opacity="1.000000" stroke="none" 
	d="
M64.077576,181.227570 
	C64.215027,181.210556 64.474190,181.418747 64.881668,181.829529 
	C64.753090,181.839005 64.476189,181.645889 64.077576,181.227570 
z"/>
<path fill="#AC694C" opacity="1.000000" stroke="none" 
	d="
M201.247650,178.947601 
	C201.150909,178.728348 201.359543,178.473846 201.833817,178.132401 
	C201.862183,178.289246 201.680038,178.578217 201.247650,178.947601 
z"/>
<path fill="#AC694C" opacity="1.000000" stroke="none" 
	d="
M202.249817,177.957306 
	C202.209732,177.785828 202.418655,177.527832 202.839920,177.136444 
	C202.867783,177.292282 202.683304,177.581543 202.249817,177.957306 
z"/>
<path fill="#E7B14D" opacity="1.000000" stroke="none" 
	d="
M202.001556,134.273270 
	C202.192322,134.220871 202.461685,134.430588 202.859879,134.864487 
	C202.685852,134.904251 202.383011,134.719818 202.001556,134.273270 
z"/>
<path fill="#E7B14D" opacity="1.000000" stroke="none" 
	d="
M201.737274,49.121628 
	C201.996201,49.161392 201.999481,49.581188 201.761230,49.815353 
	C201.522995,50.049519 201.041000,50.065941 201.013733,50.029034 
	C200.986481,49.992126 200.922577,49.926292 200.922577,49.926292 
	C201.107819,49.644814 201.293076,49.363342 201.737274,49.121628 
z"/>
<path fill="#E7B14D" opacity="1.000000" stroke="none" 
	d="
M199.967621,50.965080 
	C200.105118,50.653160 200.273270,50.370075 200.681992,50.006645 
	C200.922577,49.926292 200.986481,49.992126 200.893158,50.231087 
	C200.604416,50.725384 200.359329,50.917290 200.064575,51.045769 
	C200.064575,51.045769 199.998260,50.993916 199.967621,50.965080 
z"/>
<path fill="#FDFAE9" opacity="1.000000" stroke="none" 
	d="
M139.115952,85.278030 
	C139.407715,85.204414 139.598343,85.440002 139.842651,85.921242 
	C139.654709,85.931419 139.360870,85.738197 139.115952,85.278030 
z"/>
<path fill="#2E4B37" opacity="1.000000" stroke="none" 
	d="
M69.772774,154.728897 
	C69.590866,154.782684 69.389565,154.582733 69.116554,154.161224 
	C69.309280,154.069672 69.545464,154.248154 69.772774,154.728897 
z"/>
<path fill="#F4AC2F" opacity="1.000000" stroke="none" 
	d="
M125.992615,59.006088 
	C124.208710,57.378151 122.424797,55.750214 120.302429,54.069374 
	C118.869781,53.678787 117.775589,53.341095 116.320999,52.983688 
	C117.360794,52.173447 118.856506,50.571018 120.145821,50.722725 
	C129.253845,51.794426 138.319504,53.226326 147.697845,54.779961 
	C145.164932,56.862255 142.332840,58.707878 138.833374,60.781380 
	C136.781616,61.009274 135.397217,61.009293 133.624298,61.002518 
	C130.821396,60.332516 128.406998,59.669304 125.992615,59.006088 
z"/>
<path fill="#F4AC2F" opacity="1.000000" stroke="none" 
	d="
M110.802505,52.772758 
	C110.257286,52.986755 109.498184,52.998055 108.359421,52.994545 
	C108.849380,52.843178 109.719002,52.706619 110.802505,52.772758 
z"/>
<path fill="#F1B341" opacity="1.000000" stroke="none" 
	d="
M186.837906,89.745415 
	C186.465607,90.559120 185.917038,91.059296 185.188690,91.772873 
	C184.501205,91.749573 183.993454,91.512878 183.231903,91.157135 
	C183.133636,81.884270 167.684448,65.118607 157.034180,64.923904 
	C152.282440,64.837029 147.549850,63.701088 142.398682,63.011715 
	C144.450714,62.098259 147.065247,60.194077 149.344055,60.534863 
	C154.709335,61.337227 160.224823,62.538467 165.116806,64.797134 
	C174.042450,68.918198 180.701355,75.682617 184.515442,84.966011 
	C185.142044,86.491119 185.941849,87.945061 186.837906,89.745415 
z"/>
<path fill="#F1B341" opacity="1.000000" stroke="none" 
	d="
M134.012817,61.009308 
	C135.397217,61.009293 136.781616,61.009274 138.581177,61.011490 
	C138.998032,61.451992 138.999725,61.890255 139.002686,62.657097 
	C137.584442,63.319134 136.164902,63.652592 134.368057,63.610306 
	C133.998093,62.492813 134.005447,61.751060 134.012817,61.009308 
z"/>
<path fill="#AC4A2B" opacity="1.000000" stroke="none" 
	d="
M85.033295,160.435013 
	C87.465073,159.856003 89.903343,159.653214 92.655289,159.216919 
	C112.356834,157.732559 131.006348,162.225891 149.705185,166.309555 
	C150.124130,166.401031 150.450500,166.916351 150.651917,167.683304 
	C150.384430,168.971375 150.285065,169.810104 150.185699,170.648834 
	C151.127136,169.744141 152.068573,168.839462 153.009995,167.934769 
	C154.066849,167.956970 155.123688,167.979156 156.575714,168.020874 
	C155.966125,170.143356 154.961349,172.246323 153.956589,174.349289 
	C153.503693,174.212814 153.050781,174.076340 152.597885,173.939850 
	C153.528549,175.155457 154.459213,176.371063 156.048111,178.446411 
	C148.358414,178.969009 144.451736,167.302856 136.459457,174.459183 
	C136.208450,169.277298 133.355942,168.349442 130.172958,170.112503 
	C127.472008,171.608566 123.979248,174.108307 123.573708,176.607956 
	C123.193695,178.950211 126.285416,181.958084 128.067688,184.521240 
	C130.017548,187.325378 132.551361,188.341812 136.128342,187.273102 
	C137.040680,187.000519 138.679733,189.160309 139.994598,190.600037 
	C138.076492,191.457748 136.148727,191.917953 134.091766,192.737549 
	C132.227844,192.740723 130.493073,192.384476 128.283295,191.676041 
	C125.452599,189.412933 123.137726,187.448242 120.722664,185.615570 
	C119.643211,184.796448 118.189842,183.533554 117.222282,183.769333 
	C116.272385,184.000809 115.723419,185.877594 114.998505,187.032349 
	C107.770546,182.308838 100.545357,177.581070 93.312340,172.865311 
	C91.820343,171.892563 90.299141,170.964645 88.445267,169.972900 
	C87.079353,166.890228 86.059578,163.850739 85.033295,160.435013 
M118.288307,166.903198 
	C118.721619,167.716919 119.154930,168.530624 119.588234,169.344345 
	C120.225975,168.500702 120.863708,167.657043 121.501450,166.813400 
	C120.524216,166.653107 119.546982,166.492813 118.288307,166.903198 
z"/>
<path fill="#A54A2F" opacity="1.000000" stroke="none" 
	d="
M115.256165,187.265900 
	C115.723419,185.877594 116.272385,184.000809 117.222282,183.769333 
	C118.189842,183.533554 119.643211,184.796448 120.722664,185.615570 
	C123.137726,187.448242 125.452599,189.412933 127.901939,191.653229 
	C123.835007,190.488220 119.674416,188.993835 115.256165,187.265900 
z"/>
<path fill="#A54A2F" opacity="1.000000" stroke="none" 
	d="
M152.696030,167.930771 
	C152.068573,168.839462 151.127136,169.744141 150.185699,170.648834 
	C150.285065,169.810104 150.384430,168.971375 150.807526,168.023956 
	C151.548187,167.919113 151.965134,167.922943 152.696030,167.930771 
z"/>
<path fill="#000000" opacity="1.000000" stroke="none" 
	d="
M181.672104,96.959801 
	C178.308136,97.350792 174.899994,97.529350 171.597610,98.216415 
	C169.762558,98.598198 168.103989,99.828209 166.146545,100.288307 
	C165.927216,99.900681 165.988892,99.493378 166.016296,99.289116 
	C167.291016,98.619812 168.538345,98.154778 169.927155,97.373123 
	C172.146881,96.354919 174.225128,95.653328 176.679993,94.868973 
	C179.423615,94.509529 181.790619,94.232849 184.571945,93.894287 
	C186.878021,95.116180 191.384933,91.526886 190.637604,97.400879 
	C188.518906,96.877495 186.759811,96.011452 184.628418,95.086563 
	C183.401596,95.640045 182.547104,96.252357 181.668304,96.873428 
	C181.644012,96.882179 181.672104,96.959801 181.672104,96.959801 
z"/>
<path fill="#5A7F32" opacity="1.000000" stroke="none" 
	d="
M175.714264,116.020416 
	C172.938019,121.746262 167.370758,121.760063 161.463226,121.964279 
	C162.280838,116.853081 165.501297,114.786453 171.391403,115.361923 
	C172.702362,115.490005 173.997192,115.783218 175.714264,116.020416 
z"/>
<path fill="#597F34" opacity="1.000000" stroke="none" 
	d="
M148.993408,121.614983 
	C144.164825,120.499023 139.316971,119.009567 134.243591,117.261444 
	C141.982361,114.463684 146.753693,115.815933 148.993408,121.614983 
z"/>
<path fill="#A4BC3A" opacity="1.000000" stroke="none" 
	d="
M181.283035,97.194214 
	C181.672104,96.959801 181.644012,96.882179 182.160492,97.207291 
	C183.421432,97.650490 184.165909,97.768578 185.181580,97.817245 
	C186.081284,98.202148 187.316544,98.900024 187.246704,99.074020 
	C186.301559,101.428612 185.175110,103.710442 184.093506,106.010269 
	C178.658478,105.665352 173.223465,105.320442 167.359497,104.962631 
	C170.123062,99.728470 175.921738,99.345726 181.283035,97.194214 
z"/>
<path fill="#B4B74C" opacity="1.000000" stroke="none" 
	d="
M184.134216,106.338470 
	C185.175110,103.710442 186.301559,101.428612 187.246704,99.074020 
	C187.316544,98.900024 186.081284,98.202148 185.201202,97.477203 
	C184.966675,96.519531 184.983704,95.832466 185.000732,95.145409 
	C186.759811,96.011452 188.518906,96.877495 190.610336,97.822662 
	C189.757950,101.391945 188.573227,104.882095 187.197235,108.666992 
	C186.062271,108.196709 185.118591,107.431686 184.134216,106.338470 
z"/>
<path fill="#F5AD35" opacity="1.000000" stroke="none" 
	d="
M133.624298,61.002518 
	C134.005447,61.751060 133.998093,62.492813 133.985092,63.604866 
	C132.284012,63.962410 130.588577,63.949657 128.471695,63.912582 
	C127.478111,62.456650 126.905975,61.025036 126.163223,59.299751 
	C128.406998,59.669304 130.821396,60.332516 133.624298,61.002518 
z"/>
<path fill="#FBEBC5" opacity="1.000000" stroke="none" 
	d="
M141.963379,82.712997 
	C141.482025,82.781670 140.942337,82.594116 140.201874,82.196762 
	C140.635742,82.143562 141.270386,82.300163 141.963379,82.712997 
z"/>
<path fill="#000000" opacity="1.000000" stroke="none" 
	d="
M165.625610,100.014526 
	C165.577072,100.594391 165.251785,101.267372 164.518875,101.948029 
	C164.523788,101.339684 164.936310,100.723671 165.625610,100.014526 
z"/>
<path fill="#F09E25" opacity="1.000000" stroke="none" 
	d="
M200.000046,51.390213 
	C200.359329,50.917290 200.604416,50.725384 200.920410,50.267998 
	C201.041000,50.065941 201.522995,50.049519 201.762939,50.025253 
	C206.109955,50.371731 205.164108,52.926178 204.224106,55.337261 
	C203.584518,56.977795 202.701385,58.523384 201.885284,60.479523 
	C200.022247,61.775074 198.201096,62.702534 195.936340,63.855907 
	C194.812378,62.521664 193.578400,61.056820 192.179169,59.299667 
	C194.654449,56.583130 197.294983,54.158894 200.000046,51.390213 
z"/>
<path fill="#A54A2F" opacity="1.000000" stroke="none" 
	d="
M118.429031,166.617859 
	C119.546982,166.492813 120.524216,166.653107 121.501450,166.813400 
	C120.863708,167.657043 120.225975,168.500702 119.588242,169.344345 
	C119.154930,168.530624 118.721619,167.716919 118.429031,166.617859 
z"/>
<path fill="#B9C366" opacity="1.000000" stroke="none" 
	d="
M184.628418,95.086563 
	C184.983704,95.832466 184.966675,96.519531 184.930023,97.546623 
	C184.165909,97.768578 183.421432,97.650490 182.184784,97.198540 
	C182.547104,96.252357 183.401596,95.640045 184.628418,95.086563 
z"/>
</svg>